<svg id="Layer_1" data-name="Layer 1" xmlns="http://www.w3.org/2000/svg" xmlns:xlink="http://www.w3.org/1999/xlink" viewBox="0 0 200 200"><defs><style>.cls-1{fill:none;}.cls-2{font-size:56.84px;fill:#14d014;font-family:Kollektif-BoldItalic, Kollektif;font-weight:700;font-style:italic;}.cls-3{letter-spacing:-0.05em;}.cls-4{clip-path:url(#clip-path);}.cls-5,.cls-6{fill:#15cf17;}.cls-6{fill-rule:evenodd;}.cls-7{font-size:6.64px;font-family:OCRAExtended, OCR A Extended;}</style><clipPath id="clip-path"><rect class="cls-1" x="7.71" y="69.71" width="49.09" height="54.58"/></clipPath></defs><title>Artboard 1</title><text class="cls-2" transform="translate(61.37 117.86)">TES<tspan class="cls-3" x="97.42" y="0">T</tspan></text><g id="JustTheBucket"><g class="cls-4"><g class="cls-4"><path class="cls-5" d="M10,96.35l-.11-1.63c0-.29,0-.58,0-.87a.67.67,0,0,1,0-.22,3.58,3.58,0,0,1,.32.21,30.37,30.37,0,0,0,4.25,2.72,34.07,34.07,0,0,0,4.32,1.93c1,.39,2.09.73,3.14,1.06l1,.25a1.36,1.36,0,0,0,.21.1l1.3.31.68.17a2.52,2.52,0,0,0,.57.09l-.29-.14-.26-.07-1.21-.35-1-.26c-.59-.21-1.19-.4-1.79-.62a39,39,0,0,1-4.83-2.11,28.1,28.1,0,0,1-4.44-2.8c-.66-.52-1.29-1.07-1.93-1.61a.29.29,0,0,1-.14-.23c0-.42-.07-.83-.08-1.3l.29.2a33.7,33.7,0,0,0,5.42,3.51,40,40,0,0,0,5,2.15c1,.35,2.05.67,3.08,1,.28.08.56.14.84.21a10.67,10.67,0,0,0,2.27.52,2.55,2.55,0,0,0-.56-.21L25,98l-.62-.15c-1.39-.44-2.77-.92-4.12-1.47a37.75,37.75,0,0,1-6.4-3.33A26.88,26.88,0,0,1,11.11,91c-.42-.36-.83-.73-1.24-1.1-.09-.07-.17-.16-.28-.26q-.23-3.7-.47-7.43s0-.06.05-.12a1.11,1.11,0,0,1,.16.11,21,21,0,0,0,5.31,3.6,43,43,0,0,0,4.3,1.87c.83.32,1.67.59,2.51.86.67.22,1.35.43,2,.62s1.38.36,2.07.53c1.17.3,2.36.56,3.55.77.87.15,1.73.32,2.6.46s1.52.21,2.28.3,1.8.17,2.71.24,1.7.1,2.56.15a2.57,2.57,0,0,1,.72.06,1.09,1.09,0,0,1,0,.18.48.48,0,0,0,.52.52c.3,0,.6,0,.9,0l1,0c0,.1.06.2.07.3.22,1.53.43,3,.64,4.58l.48,3.44,1.5,10.71a1,1,0,0,1-.07.57c-.7,1.67-1.38,3.35-2.08,5l-.66,1.6a11.25,11.25,0,0,0-.65,1.7,2,2,0,0,1-.08.22A3.78,3.78,0,0,1,40.3,122a8.48,8.48,0,0,1-2.56,1.3,16,16,0,0,1-3,.7,28.93,28.93,0,0,1-7.32.06,35.23,35.23,0,0,1-4.55-.8c-.93-.22-1.83-.48-2.74-.77a23.92,23.92,0,0,1-4.71-2.1,12.24,12.24,0,0,1-2.64-2,6.07,6.07,0,0,1-1.25-1.76,3.28,3.28,0,0,1-.29-1.69,1.93,1.93,0,0,0,0-.24l0-.69-.17-2.45c-.09-1.23-.16-2.47-.24-3.7-.18-2.64-.35-5.28-.53-7.92L10,96.35"/><path class="cls-6" d="M45,91c.08-.54.34-1,.41-1.5a1.28,1.28,0,0,1,.27,0,29.51,29.51,0,0,0,4.28-.66,13.51,13.51,0,0,0,3.38-1.21,5.51,5.51,0,0,0,1.47-1.12,2.69,2.69,0,0,0,.5-3.08,5.57,5.57,0,0,0-1.09-1.58,13.32,13.32,0,0,0-2.49-2,29.93,29.93,0,0,0-4.92-2.5c-1.23-.51-2.48-1-3.75-1.36l-2.8-.83c-.41-.12-.84-.21-1.26-.31-1.06-.27-2.13-.49-3.2-.72-1.42-.3-2.85-.51-4.28-.73-.56-.08-1.13-.15-1.69-.2-.92-.09-1.83-.17-2.75-.24-.63-.06-1.26-.1-1.89-.13-.78,0-1.55,0-2.33,0-1.17,0-2.34,0-3.51.12a29.47,29.47,0,0,0-5.11.77,13,13,0,0,0-3,1.09,6,6,0,0,0-1.33.91,3.47,3.47,0,0,0-.74,1A2.62,2.62,0,0,0,9,78.73a4.56,4.56,0,0,0,.45.88,8.6,8.6,0,0,0,1.69,1.82,18.43,18.43,0,0,0,2.55,1.73,33.84,33.84,0,0,0,5.08,2.34c1,.36,2,.7,3,1,.73.24,1.48.44,2.23.65s1.48.38,2.22.57l.08,0c.65.14,1.31.29,2,.42,1.16.22,2.33.44,3.49.63.86.14,1.72.25,2.59.35s1.57.18,2.36.24c1.08.07,2.18.11,3.27.17l.45,0a4.45,4.45,0,0,1-.28,1.51,5.34,5.34,0,0,1-.8,0L37.48,91,36.54,91,35,90.81c-.91-.1-1.81-.19-2.71-.32s-2.09-.3-3.11-.54c-.26-.06-.52-.09-.78-.14-.75-.16-1.5-.3-2.24-.48-1.16-.29-2.32-.59-3.47-.93a51.45,51.45,0,0,1-5.5-2,32.57,32.57,0,0,1-4.55-2.34,15.57,15.57,0,0,1-3.37-2.73,6.22,6.22,0,0,1-1.29-2,3.37,3.37,0,0,1,.58-3.48,6.31,6.31,0,0,1,1.86-1.51,14,14,0,0,1,3.3-1.3,32.14,32.14,0,0,1,6.54-1C21.64,72,23,71.93,24.45,72c.76,0,1.53.06,2.29.1,1,0,2.07.13,3.1.26l1.65.2c1,.14,2,.28,3,.45.84.14,1.68.3,2.52.49,1.07.23,2.13.48,3.19.77s1.84.54,2.76.81c1.16.35,2.29.77,3.42,1.22a35.5,35.5,0,0,1,4,1.86,22.67,22.67,0,0,1,3.34,2.16,10.67,10.67,0,0,1,2.17,2.23,5.11,5.11,0,0,1,.64,1.17,3.37,3.37,0,0,1-.59,3.62,5.8,5.8,0,0,1-1.44,1.22,11.39,11.39,0,0,1-2.42,1.14,23.35,23.35,0,0,1-4.73,1.09c-.72.1-1.44.16-2.16.24H45"/><path class="cls-6" d="M44.32,92.21c.29-.16.35-.44.46-.71l.43,0a31.17,31.17,0,0,0,5-.76,16.5,16.5,0,0,0,4-1.47,1.06,1.06,0,0,1,.25-.1c-.06.17-.1.29-.15.41-2.58,6.2-5.14,12.41-7.73,18.66a.68.68,0,0,1-.07-.2c-.74-5.25-1.47-10.49-2.21-15.78"/><path class="cls-6" d="M46.8,113a.51.51,0,0,1-.94.28.65.65,0,0,1-.08-.27c-.13-1-.27-1.92-.4-2.89l-.66-4.73c-.44-3.14-.87-6.28-1.31-9.42-.22-1.59-.45-3.17-.67-4.76-.09-.59-.17-1.18-.24-1.76a.82.82,0,0,1,0-.35.54.54,0,0,1,.56-.35.53.53,0,0,1,.43.46c0,.42.1.84.16,1.25l.69,5,1.29,9.22.81,5.78.33,2.35c0,.09,0,.18,0,.22"/><path class="cls-6" d="M42.43,91.93c-.71,0-1.36.11-2,0,0-.07,0-.13,0-.17a16.21,16.21,0,0,0,.38-1.94,2.94,2.94,0,0,1,1-1.85,2.32,2.32,0,0,1,1.69-.62,1.56,1.56,0,0,1,1.43,1A2.21,2.21,0,0,1,45,90c-.19.57-.39,1.14-.59,1.71,0,0,0,0,0,0s-.07-.06-.08-.11c-.11-.81-.22-1.62-.34-2.42a2.7,2.7,0,0,0-.08-.39.66.66,0,0,0-.74-.45,1.09,1.09,0,0,0-1,1.23c.06.45.13.91.19,1.36s.08.62.13,1"/><path class="cls-6" d="M25.75,71.53l-2.87,0a1.56,1.56,0,0,1,0-.25A2.19,2.19,0,0,1,23.77,70a1.11,1.11,0,0,1,1.58.21,2,2,0,0,1,.4,1.37m-.93-.63a.44.44,0,0,0-.13-.47.47.47,0,0,0-.51,0,.64.64,0,0,0-.29.32.45.45,0,0,0,.34.6.58.58,0,0,0,.59-.42"/></g></g></g><text class="cls-7" transform="translate(2 7.08)">ADD YOUR NAME:<tspan x="0" y="7.96">Ethan Kessel</tspan></text></svg>